<?xml version="1.0" encoding="utf-8"?>
<!-- Generator: Adobe Illustrator 21.0.0, SVG Export Plug-In . SVG Version: 6.00 Build 0)  -->
<svg version="1.1" xmlns="http://www.w3.org/2000/svg" xmlns:xlink="http://www.w3.org/1999/xlink" x="0px" y="0px"
	 viewBox="0 0 500 500" style="enable-background:new 0 0 500 500; display:inline-block;" xml:space="preserve"
	 width="150px" height="150px" >
<style type="text/css">
	.st0{fill:#0F4C81;}
	.st1{opacity:0.7;fill:#FFFFFF;}
	.st2{fill:none;stroke:#263238;stroke-linecap:round;stroke-linejoin:round;stroke-miterlimit:10;}
	.st3{fill:#263238;}
	.st4{fill:#263238;stroke:#263238;stroke-linecap:round;stroke-linejoin:round;stroke-miterlimit:10;}
	.st5{opacity:0.5;fill:#FFFFFF;}
	.st6{opacity:0.13;clip-path:url(#XMLID_17_);}
	.st7{fill:none;stroke:#FFFFFF;stroke-linecap:round;stroke-linejoin:round;stroke-miterlimit:10;}
	.st8{clip-path:url(#XMLID_18_);fill:#0F4C81;}
	.st9{opacity:0.5;clip-path:url(#XMLID_18_);fill:#FFFFFF;}
	.st10{clip-path:url(#XMLID_19_);fill:#0F4C81;}
	.st11{opacity:0.5;clip-path:url(#XMLID_19_);fill:#FFFFFF;}
	.st12{clip-path:url(#XMLID_20_);fill:#0F4C81;}
	.st13{opacity:0.5;clip-path:url(#XMLID_20_);fill:#FFFFFF;}
	.st14{fill:#FFFFFF;stroke:#263238;stroke-linecap:round;stroke-linejoin:round;stroke-miterlimit:10;}
	.st15{clip-path:url(#XMLID_21_);fill:#0F4C81;}
	.st16{opacity:0.5;clip-path:url(#XMLID_21_);fill:#FFFFFF;}
	.st17{clip-path:url(#XMLID_22_);fill:#0F4C81;}
	.st18{opacity:0.5;clip-path:url(#XMLID_22_);fill:#FFFFFF;}
	.st19{opacity:0.53;clip-path:url(#XMLID_23_);fill:#FFFFFF;}
	.st20{opacity:0.14;clip-path:url(#XMLID_23_);}
	.st21{clip-path:url(#XMLID_23_);fill:none;stroke:#263238;stroke-linecap:round;stroke-linejoin:round;stroke-miterlimit:10;}
	.st22{clip-path:url(#XMLID_24_);fill:#0F4C81;}
	.st23{opacity:0.5;clip-path:url(#XMLID_24_);fill:#FFFFFF;}
	.st24{opacity:0.53;clip-path:url(#XMLID_25_);fill:#FFFFFF;}
	.st25{opacity:0.14;clip-path:url(#XMLID_25_);}
	.st26{clip-path:url(#XMLID_25_);fill:none;stroke:#263238;stroke-linecap:round;stroke-linejoin:round;stroke-miterlimit:10;}
	.st27{clip-path:url(#XMLID_26_);fill:#0F4C81;}
	.st28{opacity:0.5;clip-path:url(#XMLID_26_);fill:#FFFFFF;}
	.st29{clip-path:url(#XMLID_27_);fill:#0F4C81;}
	.st30{opacity:0.5;clip-path:url(#XMLID_27_);fill:#FFFFFF;}
	.st31{opacity:0.53;clip-path:url(#XMLID_28_);fill:#FFFFFF;}
	.st32{clip-path:url(#XMLID_29_);fill:#0F4C81;}
	.st33{opacity:0.5;clip-path:url(#XMLID_29_);fill:#FFFFFF;}
	.st34{clip-path:url(#XMLID_30_);fill:#0F4C81;}
	.st35{opacity:0.5;clip-path:url(#XMLID_30_);fill:#FFFFFF;}
	.st36{fill:none;stroke:#263238;stroke-width:2;stroke-linecap:round;stroke-linejoin:round;stroke-miterlimit:10;}
	.st37{fill:none;stroke:#FFFFFF;stroke-width:0.75;stroke-linecap:round;stroke-linejoin:round;stroke-miterlimit:10;}
	.st38{clip-path:url(#XMLID_31_);fill:#0F4C81;}
	.st39{opacity:0.5;clip-path:url(#XMLID_31_);fill:#FFFFFF;}
	.st40{fill:#0F4C81;stroke:#263238;stroke-linecap:round;stroke-linejoin:round;stroke-miterlimit:10;}
</style>
<g id="Background_Simple">
	<g>
		<path class="st0" d="M410.5,333.1c7.5-61.1-28.7-142.2-66.3-175.7c-67.8-60.5-124.1-48.8-167.9-27.1
			c-43.8,21.7-50.1,94-80.3,126.7c-30.2,32.7-47.5,76.8-1.6,120.6c45.9,43.8,82.9,21.6,130.9,18.8c48-2.8,111.6,19.1,146,0.1
			C395.3,383.1,407.2,360.1,410.5,333.1z"/>
		<path class="st1" d="M410.5,333.1c7.5-61.1-28.7-142.2-66.3-175.7c-67.8-60.5-124.1-48.8-167.9-27.1
			c-43.8,21.7-50.1,94-80.3,126.7c-30.2,32.7-47.5,76.8-1.6,120.6c45.9,43.8,82.9,21.6,130.9,18.8c48-2.8,111.6,19.1,146,0.1
			C395.3,383.1,407.2,360.1,410.5,333.1z"/>
	</g>
</g>
<g id="Background">
	<g>
		<g>
			<line class="st2" x1="220.6" y1="331" x2="220.6" y2="106"/>
			<polyline class="st2" points="74.4,333.2 216.3,333.2 431.9,402.8 			"/>
		</g>
		<path class="st3" d="M139,327.9h-9.8V165.8h20.2l-8.7-31.5h-26.2l-8.7,31.5H126v162.1h-9.8c-5.2,0-9.5,4.2-9.6,9.4c0,0,0,0,0,0.1
			c0,0,0,0,0,0c0,0,0,0.1,0,0.1v0h0c0.3,2.3,9.6,4.1,21,4.1c11.4,0,20.7-1.8,21-4.1h0.1v0C148.6,332.2,144.3,327.9,139,327.9z"/>
		<path class="st4" d="M269.6,94.9v190.8l143.7,23.6V71.2L269.6,94.9z M409.5,149.5l-73,4.1V87.3l73-11.6V149.5z M336.5,160.6
			l73-3.3v66.7l-73-3.4V160.6z M330.6,220.2l-58.6-2.7v-53.9l58.6-2.7V220.2z M330.6,88.3V154l-58.6,3.3V97.6L330.6,88.3z
			 M272,223.8l58.6,3.4v65.1l-58.6-9.3V223.8z M336.5,293.2v-65.7l73,4.2v73.1L336.5,293.2z"/>
	</g>
</g>
<g id="Character">
	<g>
		<g>
			<g>
				<ellipse class="st0" cx="220" cy="390.1" rx="114.9" ry="35.8"/>
				<ellipse class="st5" cx="220" cy="390.1" rx="114.9" ry="35.8"/>
			</g>
			<g>
				<defs>
					<path id="XMLID_4_" d="M210.3,232.2c0,0-26-3.1-43.2,10.3s-31.9,69.2-31.5,96c0.3,26.7,10.3,40.1,35.3,51.1
						c25,11,71.6,6.9,97.7-1.4c26-8.2,34.6-37,34.3-52.4c-0.3-15.4-17.5-33.2-23.3-37c-5.8-3.8-22.3-11.7-30.5-24
						C240.8,262.4,228.8,235.7,210.3,232.2z"/>
				</defs>
				<use xlink:href="#XMLID_4_"  style="overflow:visible;fill:#0F4C81;"/>
				<clipPath id="XMLID_17_">
					<use xlink:href="#XMLID_4_"  style="overflow:visible;"/>
				</clipPath>
				<path class="st6" d="M273.4,386.4c-9.8-1.3-21.5-4-30.4-9.4c-18.7-11.3-23.3-32.7-30-40.7c-6.7-8-18.7-7.3-24-16
					c-5.3-8.7,3.3-72.7-12-76.7c-4.1-1.1-7.2-1.4-9.6-1.4c-0.1,0.1-0.2,0.1-0.3,0.2c-17.1,13.4-31.9,69.2-31.5,96
					c0.3,26.7,10.3,40.1,35.3,51.1c25,11,71.6,6.9,97.7-1.4C270.3,387.7,271.8,387.1,273.4,386.4z"/>
				
					<use xlink:href="#XMLID_4_"  style="overflow:visible;fill:none;stroke:#263238;stroke-linecap:round;stroke-linejoin:round;stroke-miterlimit:10;"/>
			</g>
			<g>
				<g>
					<path class="st4" d="M200.1,244.3c0,0-17,3.3-20,6.3s-15.5,50-15.5,50s5.5-1.5,10.5,0.5s5.5,7.3,6,9.8s0.8,9,0.8,9
						s50.5-4.5,61.3-7s27.1-3.6,27.1-3.6s-27.6-62.3-31.9-64.6s-22-2.5-24.5-2S200.1,244.3,200.1,244.3z"/>
					<line class="st7" x1="183.3" y1="302.1" x2="187.6" y2="267.3"/>
					<line class="st7" x1="186.6" y1="276.6" x2="192.3" y2="269.1"/>
					<path class="st7" d="M203.8,281.1c0,0,16.3-5.3,27-5.3"/>
					<path class="st7" d="M219.2,266.7l-1.1,8.3c0,0,2.8,0,3,1.3s-1,2.5-1,2.5s7.8,4.3,8.8,9.3"/>
				</g>
				<g>
					<defs>
						<path id="XMLID_14_" d="M209.4,235c0,0-9.3,3-10.7,5.3c-1.3,2.3-0.3,18.7-0.3,20.7s1.2-1.2,2.2-3.5c1-2.3,4.5-5.8,5.7-5.5
							c1.2,0.3,1.8,1.7,1.8,3.8c0,2.2,2.7,5.2,5,6.8c2.3,1.7,4.5,3.3,4.5,3.3s4.8-7,6-8.8c1.2-1.8,1-5.7,1.2-7
							c0.2-1.3,3.2,3.7,3.8,2.3c0.7-1.3-1.5-2.5-3.8-6.2c-2.3-3.7-1.7-7.5-5.2-10.2C216.1,233.5,212.1,234.3,209.4,235z"/>
					</defs>
					<use xlink:href="#XMLID_14_"  style="overflow:visible;fill:#FFFFFF;"/>
					<clipPath id="XMLID_18_">
						<use xlink:href="#XMLID_14_"  style="overflow:visible;"/>
					</clipPath>
					<path class="st8" d="M198.7,240.3c-0.9,1.6-0.7,9.3-0.5,15c2.1-2.7,6.5-7.9,9.1-6.9c3.2,1.2,4.5,10.5,4.5,10.5l-2.2-23.8
						c0,0-0.1,0-0.1,0C209.4,235,200.1,238,198.7,240.3z"/>
					<path class="st9" d="M198.7,240.3c-0.9,1.6-0.7,9.3-0.5,15c2.1-2.7,6.5-7.9,9.1-6.9c3.2,1.2,4.5,10.5,4.5,10.5l-2.2-23.8
						c0,0-0.1,0-0.1,0C209.4,235,200.1,238,198.7,240.3z"/>
					
						<use xlink:href="#XMLID_14_"  style="overflow:visible;fill:none;stroke:#263238;stroke-linecap:round;stroke-linejoin:round;stroke-miterlimit:10;"/>
				</g>
				<g>
					<defs>
						<path id="XMLID_15_" d="M187.3,302.6c0,0-5.8-8.3-12.8-9s-15.5,5-15.8,7s-2,12.8-0.8,14.3s6,2.8,15.3-0.3
							S186.3,307.8,187.3,302.6z"/>
					</defs>
					<use xlink:href="#XMLID_15_"  style="overflow:visible;fill:#FFFFFF;"/>
					<clipPath id="XMLID_19_">
						<use xlink:href="#XMLID_15_"  style="overflow:visible;"/>
					</clipPath>
					<path class="st10" d="M163.9,314.6c0,0-2-5.7-1-7.7c1-2,5-5,7.5-8c2.5-3-5.8,1.7-6.2,0c-0.3-1.4,4.4-4.1,6.2-5.1
						c-5.8,1.1-11.4,5.2-11.6,6.8c-0.3,2-2,12.8-0.8,14.3c0.6,0.8,2.2,1.5,4.9,1.6C163.6,315.3,163.9,314.6,163.9,314.6z"/>
					<path class="st11" d="M163.9,314.6c0,0-2-5.7-1-7.7c1-2,5-5,7.5-8c2.5-3-5.8,1.7-6.2,0c-0.3-1.4,4.4-4.1,6.2-5.1
						c-5.8,1.1-11.4,5.2-11.6,6.8c-0.3,2-2,12.8-0.8,14.3c0.6,0.8,2.2,1.5,4.9,1.6C163.6,315.3,163.9,314.6,163.9,314.6z"/>
					
						<use xlink:href="#XMLID_15_"  style="overflow:visible;fill:none;stroke:#263238;stroke-linecap:round;stroke-linejoin:round;stroke-miterlimit:10;"/>
				</g>
			</g>
			<g>
				<defs>
					<path id="XMLID_8_" d="M167.8,304.8c0,0-9.4,3.7-9.8,11c-0.2,4,6.5,5.8,13.5,5.8s17-8.8,23.5-12.5s21.5-12.5,23.3-13.3
						s7.8,1.3,10.3,2s7.3,0.8,7.3,0.8s3.5,5.5,5.3,5.5s-3.8-8.3-4.5-10s-13-5.8-14.5-5.8s-36.5,8.8-41.8,10.8
						S167.8,304.8,167.8,304.8z"/>
				</defs>
				<use xlink:href="#XMLID_8_"  style="overflow:visible;fill:#FFFFFF;"/>
				<clipPath id="XMLID_20_">
					<use xlink:href="#XMLID_8_"  style="overflow:visible;"/>
				</clipPath>
				<path class="st12" d="M187.4,303.8c14.3-7.1,34.6-15.5,34.6-15.5c-1.5,0-36.5,8.8-41.8,10.8s-12.5,5.8-12.5,5.8s-9.4,3.7-9.8,11
					c-0.2,4,6.5,5.8,13.5,5.8s17-8.8,23.5-12.5c1.1-0.6,2.5-1.4,3.9-2.3C189.5,308,176.7,309.1,187.4,303.8z"/>
				<path class="st13" d="M187.4,303.8c14.3-7.1,34.6-15.5,34.6-15.5c-1.5,0-36.5,8.8-41.8,10.8s-12.5,5.8-12.5,5.8s-9.4,3.7-9.8,11
					c-0.2,4,6.5,5.8,13.5,5.8s17-8.8,23.5-12.5c1.1-0.6,2.5-1.4,3.9-2.3C189.5,308,176.7,309.1,187.4,303.8z"/>
				
					<use xlink:href="#XMLID_8_"  style="overflow:visible;fill:none;stroke:#263238;stroke-linecap:round;stroke-linejoin:round;stroke-miterlimit:10;"/>
			</g>
			<g>
				<path class="st14" d="M240.9,249.2l-7.6,42.9l55,0.3l8.2-40.6c0.3-1.5-0.8-3-2.4-3l-50.6-1.5C242.2,247.1,241.2,248,240.9,249.2
					z"/>
				<g>
					<defs>
						<polygon id="XMLID_9_" points="233.3,292.1 206.5,311 267.8,309.3 288.3,292.3 						"/>
					</defs>
					<use xlink:href="#XMLID_9_"  style="overflow:visible;fill:#FFFFFF;"/>
					<clipPath id="XMLID_21_">
						<use xlink:href="#XMLID_9_"  style="overflow:visible;"/>
					</clipPath>
					<polygon class="st15" points="233.3,292.1 206.5,311 267.8,309.3 288.3,292.3 					"/>
					<polygon class="st16" points="233.3,292.1 206.5,311 267.8,309.3 288.3,292.3 					"/>
					
						<use xlink:href="#XMLID_9_"  style="overflow:visible;fill:none;stroke:#263238;stroke-linecap:round;stroke-linejoin:round;stroke-miterlimit:10;"/>
				</g>
			</g>
			<g>
				<defs>
					<path id="XMLID_12_" d="M253.6,310.8c0,0,22-19.3,43.7-25.8s26.3-5.5,25.8,4.3s-11,60.8-18,73.8s-15.8,36.8-15.5,41.3
						s8.8,17.8,16.3,22.5s6.8,10.5,2,11.5s-10.3,2.8-26.5-7.8s-23-25.5-22-29.3s11.5-8.8,15.8-16.3s11.3-35.5,11.8-48.3
						s5-23.5,5-23.5s-27.5,5-35.5,10L253.6,310.8z"/>
				</defs>
				<use xlink:href="#XMLID_12_"  style="overflow:visible;fill:#FFFFFF;"/>
				<clipPath id="XMLID_22_">
					<use xlink:href="#XMLID_12_"  style="overflow:visible;"/>
				</clipPath>
				<path class="st17" d="M253.6,310.8c0,0,22-19.3,43.7-25.8s26.3-5.5,25.8,4.3s-11,60.8-18,73.8s-15.8,36.8-15.5,41.3
					s8.8,17.8,16.3,22.5s6.8,10.5,2,11.5s-10.3,2.8-26.5-7.8s-23-25.5-22-29.3s11.5-8.8,15.8-16.3s11.3-35.5,11.8-48.3
					s5-23.5,5-23.5s-27.5,5-35.5,10L253.6,310.8z"/>
				<path class="st18" d="M253.6,310.8c0,0,22-19.3,43.7-25.8s26.3-5.5,25.8,4.3s-11,60.8-18,73.8s-15.8,36.8-15.5,41.3
					s8.8,17.8,16.3,22.5s6.8,10.5,2,11.5s-10.3,2.8-26.5-7.8s-23-25.5-22-29.3s11.5-8.8,15.8-16.3s11.3-35.5,11.8-48.3
					s5-23.5,5-23.5s-27.5,5-35.5,10L253.6,310.8z"/>
				
					<use xlink:href="#XMLID_12_"  style="overflow:visible;fill:none;stroke:#263238;stroke-linecap:round;stroke-linejoin:round;stroke-miterlimit:10;"/>
			</g>
			<path class="st14" d="M275.1,385.1c-0.3,0.6-0.7,1.1-1.1,1.6c3.9,0.4,9.4,1.8,14.1,5.9c1.4,1.2,2.5,2.3,3.4,3.3
				c2.9-9.3,8.7-23.7,13.6-32.8c7-13,17.5-64,18-73.8s-4-10.8-25.8-4.3s-43.7,25.8-43.7,25.8l2.7,12.5c8-5,35.5-10,35.5-10
				s-4.5,10.8-5,23.5S279.3,377.6,275.1,385.1z"/>
			<g>
				<defs>
					<path id="XMLID_2_" d="M275.1,385.1c-0.3,0.6-0.7,1.1-1.1,1.6c3.9,0.4,9.4,1.8,14.1,5.9c1.4,1.2,2.5,2.3,3.4,3.3
						c4.8-6.4,10.2-26.7,16.3-35.1c15.7-21.6,14.8-61.7,15.3-71.4s-4-10.8-25.8-4.3s-43.7,25.8-43.7,25.8l2.7,12.5
						c8-5,35.5-10,35.5-10s-4.5,10.8-5,23.5S279.3,377.6,275.1,385.1z"/>
				</defs>
				<use xlink:href="#XMLID_2_"  style="overflow:visible;fill:#263238;"/>
				<clipPath id="XMLID_23_">
					<use xlink:href="#XMLID_2_"  style="overflow:visible;"/>
				</clipPath>
				<path class="st19" d="M275.1,385.1c-0.3,0.6-0.7,1.1-1.1,1.6c3.9,0.4,9.4,1.8,14.1,5.9c1.4,1.2,2.5,2.3,3.4,3.3
					c4.8-6.4,10.2-26.7,16.3-35.1c15.7-21.6,14.8-61.7,15.3-71.4s-4-10.8-25.8-4.3s-43.7,25.8-43.7,25.8l2.7,12.5
					c8-5,35.5-10,35.5-10s-4.5,10.8-5,23.5S279.3,377.6,275.1,385.1z"/>
				<path class="st20" d="M312.5,288c-0.4-3.6-39.1,12.8-55.4,19.9c-2.3,1.8-3.6,2.9-3.6,2.9l2.7,12.5c8-5,35.5-10,35.5-10
					s-4.5,10.8-5,23.5s-7.5,40.8-11.8,48.3c-0.3,0.6-0.7,1.1-1.1,1.6c2.3,0.3,5.1,0.8,8,2.1c6.1-12.8,12.5-27.6,15.5-39.3
					C303,328.5,313,292.5,312.5,288z"/>
				<path class="st21" d="M291.8,313.3c0,0,7.5-15.3,14-21.5"/>
				
					<use xlink:href="#XMLID_2_"  style="overflow:visible;fill:none;stroke:#263238;stroke-linecap:round;stroke-linejoin:round;stroke-miterlimit:10;"/>
			</g>
			<path class="st4" d="M220.6,331c0,0,12.3-0.3,23.7-4.5c11.3-4.1-9.3-11.7-17.1-7.5C219.2,323.1,220.6,331,220.6,331z"/>
			<g>
				<defs>
					<path id="XMLID_10_" d="M188.1,314.8c0,0-8,4.5-10.8,9.5s9.1,13.3,21.6,12.8s35.4-14.1,35.4-14.1s0.3,22,4.5,30
						s23.7,27.5,31.5,32.5s33.8,23.8,37.8,26.8s11.5,8.5,13.3,8.8s20-22,24.3-29.5s8-23.3,6.5-26.8s-4.5-0.5-7.5,2s-30.5,20.8-33,22
						s-4.3,1.8-4.3,1.8s-22.5-21.5-34.5-38s-13-37.8-17.5-45.8c-4.5-8-11-11.5-20.8-10.5S204.6,302.6,188.1,314.8z"/>
				</defs>
				<use xlink:href="#XMLID_10_"  style="overflow:visible;fill:#FFFFFF;"/>
				<clipPath id="XMLID_24_">
					<use xlink:href="#XMLID_10_"  style="overflow:visible;"/>
				</clipPath>
				<path class="st22" d="M293.9,402c6.7,4.8,12.5,9,14.2,10.3c4,3,11.5,8.5,13.3,8.8c0.6,0.1,3.3-2.7,6.7-6.6l-28.6-18.4L293.9,402
					z"/>
				<path class="st23" d="M293.9,402c6.7,4.8,12.5,9,14.2,10.3c4,3,11.5,8.5,13.3,8.8c0.6,0.1,3.3-2.7,6.7-6.6l-28.6-18.4L293.9,402
					z"/>
				
					<use xlink:href="#XMLID_10_"  style="overflow:visible;fill:none;stroke:#263238;stroke-linecap:round;stroke-linejoin:round;stroke-miterlimit:10;"/>
			</g>
			<g>
				<defs>
					<path id="XMLID_1_" d="M305.8,389.1c-5.3-5.2-25.1-31.8-32.9-47.1c-11.5-22.4-12.7-30.1-17.2-38.1s-11.3-8.6-21-7.6
						s-27.2,2.8-48.6,14.9c0,0-9,4.9-11.7,9.9s7.3,17.6,24.7,16c12.5-1.1,35.4-14.1,35.4-14.1s0.3,22,4.5,30s23.7,27.5,31.5,32.5
						c4.9,3.2,17.2,11.9,26.5,18.6C299.2,395.8,303.3,391.2,305.8,389.1z"/>
				</defs>
				<use xlink:href="#XMLID_1_"  style="overflow:visible;fill:#263238;"/>
				<clipPath id="XMLID_25_">
					<use xlink:href="#XMLID_1_"  style="overflow:visible;"/>
				</clipPath>
				<path class="st24" d="M305.8,389.1c-5.3-5.2-25.1-31.8-32.9-47.1c-11.5-22.4-12.7-30.1-17.2-38.1s-11.3-8.6-21-7.6
					s-27.2,2.8-48.6,14.9c0,0-9,4.9-11.7,9.9s7.3,17.6,24.7,16c12.5-1.1,35.4-14.1,35.4-14.1s0.3,22,4.5,30s23.7,27.5,31.5,32.5
					c4.9,3.2,17.2,11.9,26.5,18.6C299.2,395.8,303.3,391.2,305.8,389.1z"/>
				<path class="st25" d="M255.5,353.5c-7.5-19-3-57-24-52c-15.3,3.6-43.3,16.6-57.4,23.3c1.7,5.7,10.9,13.6,24.8,12.3
					c12.5-1.1,35.4-14.1,35.4-14.1s0.3,22,4.5,30s23.7,27.5,31.5,32.5c4.9,3.2,17.2,11.9,26.5,18.6c0.9-3.4,2.2-6.1,3.5-8.4
					C281.7,382,259.7,364.1,255.5,353.5z"/>
				<line class="st26" x1="234.3" y1="323.1" x2="233.6" y2="310.1"/>
				
					<use xlink:href="#XMLID_1_"  style="overflow:visible;fill:none;stroke:#263238;stroke-linecap:round;stroke-linejoin:round;stroke-miterlimit:10;"/>
			</g>
			<path class="st4" d="M308.1,412.3c4,3,11.5,8.5,13.3,8.8s20-22,24.3-29.5s8-23.3,6.5-26.8s-4.5-0.5-7.5,2s-30.5,20.8-33,22
				c-0.7,0.3-1.3,0.6-1.8,0.8c-0.7,1.4-1.6,3.5-1,4.9c1,2.3,5.3,5.3,5.3,5.3l-7.6,11.3C307.2,411.7,307.7,412.1,308.1,412.3z"/>
			<g>
				<defs>
					<path id="XMLID_11_" d="M345.6,391.6c4.3-7.5,8-23.3,6.5-26.8c-0.9-2-2.2-1.9-3.8-0.9c1.1,4.7,0,13.7-5.2,23.4
						c-4.6,8.7-18.8,24-26,31.4c1.9,1.3,3.6,2.2,4.3,2.3C323.1,421.3,341.3,399.1,345.6,391.6z"/>
				</defs>
				<use xlink:href="#XMLID_11_"  style="overflow:visible;fill:#FFFFFF;"/>
				<clipPath id="XMLID_26_">
					<use xlink:href="#XMLID_11_"  style="overflow:visible;"/>
				</clipPath>
				<path class="st27" d="M321.6,421c0.1,0,0.1-0.1,0.2-0.1c0,0,0,0,0.1,0c0.1-0.1,0.2-0.1,0.3-0.2c0,0,0.1-0.1,0.1-0.1
					c0.1-0.1,0.2-0.2,0.3-0.2c0.1,0,0.1-0.1,0.2-0.1c0.1-0.1,0.3-0.2,0.4-0.4c0.1-0.1,0.2-0.2,0.2-0.2c0.1-0.1,0.2-0.2,0.3-0.3
					c0.1-0.1,0.2-0.2,0.3-0.3c0.1-0.1,0.2-0.2,0.3-0.3c0.2-0.2,0.5-0.5,0.7-0.7c0,0,0.1-0.1,0.1-0.1c0.1-0.2,0.3-0.3,0.4-0.5
					c0.1-0.1,0.1-0.1,0.2-0.2c0.5-0.6,1.1-1.2,1.7-1.8c0,0,0,0,0-0.1c0.2-0.2,0.4-0.5,0.6-0.7c0,0,0,0,0,0l-4.4-2.8
					c-2.5,2.7-4.8,5.1-6.6,7c0,0,0,0,0,0c0.2,0.2,0.5,0.3,0.7,0.4c0,0,0.1,0,0.1,0.1c0.2,0.1,0.4,0.3,0.6,0.4c0,0,0,0,0,0
					c0.3,0.2,0.7,0.4,1,0.6c0.1,0.1,0.2,0.1,0.3,0.2c0.1,0.1,0.2,0.1,0.3,0.1c0.1,0.1,0.2,0.1,0.3,0.2c0.1,0,0.1,0.1,0.2,0.1
					c0.1,0,0.2,0.1,0.3,0.1c0.1,0,0.1,0,0.2,0.1c0.1,0,0.3,0.1,0.4,0.1C321.4,421.1,321.4,421.1,321.6,421
					C321.5,421,321.6,421,321.6,421z"/>
				<path class="st28" d="M321.6,421c0.1,0,0.1-0.1,0.2-0.1c0,0,0,0,0.1,0c0.1-0.1,0.2-0.1,0.3-0.2c0,0,0.1-0.1,0.1-0.1
					c0.1-0.1,0.2-0.2,0.3-0.2c0.1,0,0.1-0.1,0.2-0.1c0.1-0.1,0.3-0.2,0.4-0.4c0.1-0.1,0.2-0.2,0.2-0.2c0.1-0.1,0.2-0.2,0.3-0.3
					c0.1-0.1,0.2-0.2,0.3-0.3c0.1-0.1,0.2-0.2,0.3-0.3c0.2-0.2,0.5-0.5,0.7-0.7c0,0,0.1-0.1,0.1-0.1c0.1-0.2,0.3-0.3,0.4-0.5
					c0.1-0.1,0.1-0.1,0.2-0.2c0.5-0.6,1.1-1.2,1.7-1.8c0,0,0,0,0-0.1c0.2-0.2,0.4-0.5,0.6-0.7c0,0,0,0,0,0l-4.4-2.8
					c-2.5,2.7-4.8,5.1-6.6,7c0,0,0,0,0,0c0.2,0.2,0.5,0.3,0.7,0.4c0,0,0.1,0,0.1,0.1c0.2,0.1,0.4,0.3,0.6,0.4c0,0,0,0,0,0
					c0.3,0.2,0.7,0.4,1,0.6c0.1,0.1,0.2,0.1,0.3,0.2c0.1,0.1,0.2,0.1,0.3,0.1c0.1,0.1,0.2,0.1,0.3,0.2c0.1,0,0.1,0.1,0.2,0.1
					c0.1,0,0.2,0.1,0.3,0.1c0.1,0,0.1,0,0.2,0.1c0.1,0,0.3,0.1,0.4,0.1C321.4,421.1,321.4,421.1,321.6,421
					C321.5,421,321.6,421,321.6,421z"/>
				
					<use xlink:href="#XMLID_11_"  style="overflow:visible;fill:none;stroke:#263238;stroke-linecap:round;stroke-linejoin:round;stroke-miterlimit:10;"/>
			</g>
			<path class="st4" d="M305.8,426.8c-7.5-4.8-16-18-16.3-22.5c0-0.4,0-0.9,0.1-1.5c-2.4,0-4.1,1.5-4.1,1.5s-5.5-5-9.8-7.8
				c-3-2-7-2.5-9-2.7c-3.6,3-7,5.4-7.5,7.4c-1,3.8,5.8,18.8,22,29.3s21.8,8.8,26.5,7.8S313.3,431.6,305.8,426.8z"/>
			<path class="st14" d="M257.8,401.8"/>
			<g>
				<defs>
					<path id="XMLID_13_" d="M305.8,426.8c-2.2-1.4-4.5-3.6-6.7-6c-5.2-2.2-12-5-18.1-8.8c-6.5-4-5-6.5-8.8-10.3
						c-2.9-2.9-8.5-3.3-11-3.3c-1,1-1.7,1.9-2,2.8c-1,3.8,5.8,18.8,22,29.3s21.8,8.8,26.5,7.8S313.3,431.6,305.8,426.8z"/>
				</defs>
				<use xlink:href="#XMLID_13_"  style="overflow:visible;fill:#FFFFFF;"/>
				<clipPath id="XMLID_27_">
					<use xlink:href="#XMLID_13_"  style="overflow:visible;"/>
				</clipPath>
				<path class="st29" d="M305.8,426.8c-2.2-1.4-4.5-3.6-6.7-6c-5.2-2.2-12-5-18.1-8.8c-6.5-4-5-6.5-8.8-10.3
					c-2.9-2.9-8.5-3.3-11-3.3c-1,1-1.7,1.9-2,2.8c-1,3.8,5.8,18.8,22,29.3s21.8,8.8,26.5,7.8S313.3,431.6,305.8,426.8z"/>
				<path class="st30" d="M305.8,426.8c-2.2-1.4-4.5-3.6-6.7-6c-5.2-2.2-12-5-18.1-8.8c-6.5-4-5-6.5-8.8-10.3
					c-2.9-2.9-8.5-3.3-11-3.3c-1,1-1.7,1.9-2,2.8c-1,3.8,5.8,18.8,22,29.3s21.8,8.8,26.5,7.8S313.3,431.6,305.8,426.8z"/>
				
					<use xlink:href="#XMLID_13_"  style="overflow:visible;fill:none;stroke:#263238;stroke-linecap:round;stroke-linejoin:round;stroke-miterlimit:10;"/>
			</g>
			<g>
				<defs>
					<path id="XMLID_3_" d="M307.1,428.6c-6.5-3.8-19.8-6.3-28.3-12s-6.3-10.8-12.5-14.8c-2.9-1.8-5.3-1.4-7-0.4
						c-0.9,3.9,5.9,18.7,22,29.2c16.3,10.5,21.8,8.8,26.5,7.8c3.2-0.7,4.5-3.4,2.9-6.6C309.7,430.5,308.5,429.4,307.1,428.6z"/>
				</defs>
				<use xlink:href="#XMLID_3_"  style="overflow:visible;fill:#263238;"/>
				<clipPath id="XMLID_28_">
					<use xlink:href="#XMLID_3_"  style="overflow:visible;"/>
				</clipPath>
				<path class="st31" d="M307.1,428.6c-6.5-3.8-19.8-6.3-28.3-12s-6.3-10.8-12.5-14.8c-2.9-1.8-5.3-1.4-7-0.4
					c-0.9,3.9,5.9,18.7,22,29.2c16.3,10.5,21.8,8.8,26.5,7.8c3.2-0.7,4.5-3.4,2.9-6.6C309.7,430.5,308.5,429.4,307.1,428.6z"/>
				
					<use xlink:href="#XMLID_3_"  style="overflow:visible;fill:none;stroke:#263238;stroke-linecap:round;stroke-linejoin:round;stroke-miterlimit:10;"/>
			</g>
			<g>
				<path class="st14" d="M182.5,380.7c0,0,4.8-5.8,5.5-1.4c0.7,4.5-0.3,12.7-3.8,15.8c-3.4,3.1-5.1-1.7-5.1-1.7l2.1-2.7
					c0,0,1.7,3.4,3.1-2.1c1.4-5.5-2.7-4.8-2.7-4.8L182.5,380.7z"/>
				<path class="st14" d="M178.8,402.7c-2.8,2.1-12.1,2.1-14.9,0c-6-4.4-5-25.9-5-25.9h24.9C183.8,376.7,184.8,398.2,178.8,402.7z"
					/>
				<g>
					<path class="st2" d="M161.6,372.5c0-2.7,2.5-2.7,2.5-5.4c0-2.7-2.5-2.7-2.5-5.4c0-2.7,2.5-2.7,2.5-5.4c0-2.7-2.5-2.7-2.5-5.4
						c0-2.7,2.5-2.7,2.5-5.4"/>
					<path class="st2" d="M170.2,372.5c0-2.1,2.5-2.1,2.5-4.1c0-2.1-2.5-2.1-2.5-4.1c0-2.1,2.5-2.1,2.5-4.1c0-2.1-2.5-2.1-2.5-4.1
						c0-2.1,2.5-2.1,2.5-4.1"/>
					<path class="st2" d="M179.6,372.5c0-2.7,2.5-2.7,2.5-5.4c0-2.7-2.5-2.7-2.5-5.4c0-2.7,2.5-2.7,2.5-5.4c0-2.7-2.5-2.7-2.5-5.4
						c0-2.7,2.5-2.7,2.5-5.4"/>
				</g>
				<ellipse class="st14" cx="171.3" cy="376.7" rx="12.4" ry="1.1"/>
			</g>
			<g>
				<g>
					<defs>
						<path id="XMLID_5_" d="M206.7,222c0,0,1.2,12.6,1.7,16.6c0.5,4,1.6,15.4,2.8,19.2c1.2,3.8,7.4,10.4,8,8.9
							c0.6-1.5,3.7-11.8,2.5-17.9c-1.2-6.1-1.6-11.4-0.8-13s3.5-3.3,3.5-3.3s-4.9-2.5-9.4-5.5C210.5,224,207.3,220.7,206.7,222z"/>
					</defs>
					<use xlink:href="#XMLID_5_"  style="overflow:visible;fill:#FFFFFF;"/>
					<clipPath id="XMLID_29_">
						<use xlink:href="#XMLID_5_"  style="overflow:visible;"/>
					</clipPath>
					<path class="st32" d="M222.8,233.1l-1-1.9c-1.8-1-4.4-2.5-6.8-4.1c-4.5-3-7.6-6.4-8.2-5c0,0,1.2,12.6,1.7,16.6
						c0.5,4,1.6,15.4,2.8,19.2c0.3,0.9,0.9,2,1.6,3.1c-1.2-7.5,0.1-21.2,0.1-21.2L222.8,233.1z"/>
					<path class="st33" d="M222.8,233.1l-1-1.9c-1.8-1-4.4-2.5-6.8-4.1c-4.5-3-7.6-6.4-8.2-5c0,0,1.2,12.6,1.7,16.6
						c0.5,4,1.6,15.4,2.8,19.2c0.3,0.9,0.9,2,1.6,3.1c-1.2-7.5,0.1-21.2,0.1-21.2L222.8,233.1z"/>
					
						<use xlink:href="#XMLID_5_"  style="overflow:visible;fill:none;stroke:#263238;stroke-linecap:round;stroke-linejoin:round;stroke-miterlimit:10;"/>
				</g>
				<g>
					<g>
						<g>
							<defs>
								<path id="XMLID_6_" d="M206.3,223.8c0,0,7.2,6,12.7,8.2c5.5,2.2,14,2.1,15.2-0.8c1.2-2.9-2.1-25.6-4.9-31.6
									s-5.9-6.1-10.9-6.5c-5-0.5-15.1,3.6-16.9,8.5c-1.8,4.9,0.2,11.7,1.7,15.8C204.6,221.5,206.3,223.8,206.3,223.8z"/>
							</defs>
							<use xlink:href="#XMLID_6_"  style="overflow:visible;fill:#FFFFFF;"/>
							<clipPath id="XMLID_30_">
								<use xlink:href="#XMLID_6_"  style="overflow:visible;"/>
							</clipPath>
							<path class="st34" d="M219.2,223.6c-2.6-7.6-3.2-19.5-3.2-22.6c0-2.5,6.4-5.1,9.3-6.2c-1.9-1.2-4.1-1.3-7-1.6
								c-5-0.5-15.1,3.6-16.9,8.5c-1.8,4.9,0.2,11.7,1.7,15.8c1.5,4.1,3.1,6.4,3.1,6.4s7.2,6,12.7,8.2c3.7,1.4,8.7,1.9,11.9,1.2
								C227,231.7,220.9,228.6,219.2,223.6z"/>
							<path class="st35" d="M219.2,223.6c-2.6-7.6-3.2-19.5-3.2-22.6c0-2.5,6.4-5.1,9.3-6.2c-1.9-1.2-4.1-1.3-7-1.6
								c-5-0.5-15.1,3.6-16.9,8.5c-1.8,4.9,0.2,11.7,1.7,15.8c1.5,4.1,3.1,6.4,3.1,6.4s7.2,6,12.7,8.2c3.7,1.4,8.7,1.9,11.9,1.2
								C227,231.7,220.9,228.6,219.2,223.6z"/>
							
								<use xlink:href="#XMLID_6_"  style="overflow:visible;fill:none;stroke:#263238;stroke-linecap:round;stroke-linejoin:round;stroke-miterlimit:10;"/>
						</g>
						
							<ellipse transform="matrix(0.9992 -3.933515e-02 3.933515e-02 0.9992 -8.052 9.0338)" class="st2" cx="225.5" cy="209.1" rx="4.2" ry="5.2"/>
						
							<ellipse transform="matrix(0.9992 -3.932795e-02 3.932795e-02 0.9992 -7.9986 9.3307)" class="st2" cx="233.2" cy="208" rx="2.3" ry="5.2"/>
						<path class="st14" d="M230.1,207.9c0,0,8.3,1.6,7.5,3.6c-0.8,2-6.4,4.1-6.4,4.1"/>
						<path class="st2" d="M229.6,207c0,0,0.1-1,1.4-0.4"/>
						<line class="st2" x1="221.1" y1="209.8" x2="206.1" y2="215.7"/>
						<path class="st36" d="M221.3,204.9c0,0,0.9-2.4,3.7-2.3"/>
						<line class="st36" x1="231.3" y1="202.7" x2="229" y2="203.6"/>
						<path class="st2" d="M224.1,219.5c0,0,3-0.8,4.7,1"/>
						
							<ellipse transform="matrix(0.9908 -0.1355 0.1355 0.9908 -26.3268 32.4814)" class="st3" cx="225.4" cy="209.6" rx="0.7" ry="1.8"/>
					</g>
					<g>
						<path class="st4" d="M207.5,215.7c0,0-1,2,1.8,2.1c2.8,0.1,4.7-1.3,3.4-3c-1.4-1.7-3.4-3.3-1.3-5.6c2.1-2.3,6.1-4.2,3.9-6.7
							c-2.3-2.5-10.7-0.2-8.6-2.3c2.1-2,11.8-4.2,16.2-3.9c4.4,0.3,12.5-3.1,14.3-7.5c1.8-4.4-0.7-12.6-6.6-12.1
							c-5.9,0.4-10.2,5.6-12.8,5.9c-2.6,0.3-7.9-2.5-12.4,0.1c-4.5,2.6-4.6,9.8-5,10.6c-0.4,0.9-6.4,2.2-7.5,8.3
							c-1.1,6.1,1.7,11,4.2,13.8c2.5,2.7,3.6,3.8,3.6,3.8L207.5,215.7z"/>
						<g>
							<path class="st37" d="M194.7,204.7c-0.1,1.5,0.6,2.7,0.6,2.7"/>
							<path class="st37" d="M220.2,188.8c0,0-2.2-4.8,3.4-4.8c5.6,0,6.4,7,0.6,9.5c-5.8,2.6-18.3,3.2-25,6.2
								c-1.7,0.7-2.8,1.6-3.4,2.4"/>
							<path class="st37" d="M210.2,205.8c-2,0.7-4.6,1.7-7.2,2.9c-5.6,2.6-4.4,5.2-4.4,5.2"/>
							<path class="st37" d="M213.9,204.5c0,0-0.5,0.1-1.3,0.4"/>
						</g>
					</g>
					<g>
						<defs>
							<path id="XMLID_7_" d="M208.4,217.9c0,0-3.2-4.7-6.6-2.8c-3.4,1.9-0.8,8.5,1.3,10.8c2,2.3,6-2,6.4-3.1"/>
						</defs>
						<use xlink:href="#XMLID_7_"  style="overflow:visible;fill:#FFFFFF;"/>
						<clipPath id="XMLID_31_">
							<use xlink:href="#XMLID_7_"  style="overflow:visible;"/>
						</clipPath>
						<path class="st38" d="M208.4,217.9c0,0-3.2-4.7-6.6-2.8c-3.4,1.9-0.8,8.5,1.3,10.8c2,2.3,6-2,6.4-3.1"/>
						<path class="st39" d="M208.4,217.9c0,0-3.2-4.7-6.6-2.8c-3.4,1.9-0.8,8.5,1.3,10.8c2,2.3,6-2,6.4-3.1"/>
						
							<use xlink:href="#XMLID_7_"  style="overflow:visible;fill:none;stroke:#263238;stroke-linecap:round;stroke-linejoin:round;stroke-miterlimit:10;"/>
					</g>
				</g>
			</g>
		</g>
		<g>
			<path class="st14" d="M167.6,276.3H95.9c-2.8,0-5.1-2.3-5.1-5.1v-52.4c0-2.8,2.3-5.1,5.1-5.1h71.7c2.8,0,5.1,2.3,5.1,5.1v52.4
				C172.7,274,170.4,276.3,167.6,276.3z"/>
			<polyline class="st14" points="171.2,258.7 219.2,271.2 171.2,247.7 			"/>
			<rect x="97.4" y="219.6" class="st40" width="19.3" height="50.6"/>
			<rect x="166.1" y="219.6" class="st40" width="2.4" height="50.6"/>
			<rect x="166.1" y="242.8" class="st4" width="2.4" height="4.3"/>
			<line class="st14" x1="122.7" y1="220.8" x2="160.7" y2="220.8"/>
			<line class="st14" x1="122.7" y1="226.3" x2="160.7" y2="226.3"/>
			<line class="st14" x1="122.7" y1="231.7" x2="160.7" y2="231.7"/>
			<line class="st14" x1="122.7" y1="237.1" x2="160.7" y2="237.1"/>
			<line class="st14" x1="122.7" y1="250.4" x2="160.7" y2="250.4"/>
			<line class="st14" x1="122.7" y1="255.2" x2="160.7" y2="255.2"/>
			<line class="st14" x1="122.7" y1="260" x2="160.7" y2="260"/>
			<line class="st14" x1="122.7" y1="270" x2="160.7" y2="270"/>
			<line class="st2" x1="97.4" y1="270.2" x2="116.7" y2="219.6"/>
		</g>
	</g>
</g>
<g id="Plants">
	<g>
		<g>
			<ellipse class="st0" cx="387.9" cy="402.8" rx="16.7" ry="7.5"/>
			<ellipse class="st5" cx="387.9" cy="402.8" rx="16.7" ry="7.5"/>
		</g>
		<g>
			<path class="st3" d="M368.3,291.8c1.8,0.8,6.2,0.7,6.2,0.7c0,0-0.9-2.9-1-3c-1-2-4-5.3-6.5-5c-1.8,0.2-2.8,2-2.4,3.7
				C365,289.8,366.8,291.1,368.3,291.8z"/>
			<path class="st3" d="M425.7,276.9c-2.5-0.3-5.4,3.1-6.3,5.2c-0.1,0.2-1,3.1-0.9,3.1c0,0,0,0,0.1,0c-0.5,0.5-1,1.1-1.5,1.8
				c-1,1.2-2.1,2.5-3.1,4.1c-1.1,1.6-2.2,3.3-3.3,5.2c-1,1.9-2,4-2.8,6.3c0,0,0,0.1,0,0.1c0-0.7,0-2.8,0-2.9
				c-0.3-2.2-2.1-6.3-4.6-6.8c-1.8-0.3-3.3,1.1-3.4,2.8c-0.1,1.8,1.1,3.5,2.4,4.6c1.4,1.2,5.3,2.5,5.6,2.6c-0.7,2.2-1.2,4.4-1.6,6.8
				c-0.2,1.3-0.4,2.7-0.6,4c0-0.6,0-1.2,0-1.3c-0.3-2.2-2.1-6.3-4.6-6.8c-1.8-0.3-3.3,1.1-3.4,2.8c-0.1,1.8,1.1,3.5,2.4,4.6
				c1.3,1.1,4.6,2.2,5.4,2.5c-0.1,0.5-0.1,1-0.2,1.6c-0.3,2.5-0.6,5-0.9,7.4c-0.1,0.9-0.3,1.7-0.4,2.5c0-0.6,0-1,0-1.1
				c-0.3-2.2-2.1-6.3-4.6-6.8c-1.8-0.3-3.3,1.1-3.4,2.8c-0.1,1.8,1.1,3.5,2.4,4.6c1.2,1.1,4.2,2.1,5.3,2.5c-0.2,0.9-0.4,1.7-0.6,2.5
				c-0.2,0.6-0.3,1.1-0.5,1.7c-0.2,0.6-0.4,1.1-0.5,1.6c-0.4,1-0.8,2.1-1.1,3.1c-0.3,0.7-0.5,1.4-0.8,2c0.1-0.9,0.4-2.5,0.4-2.7
				c0-1.5-0.5-3.9-1.5-5.6c0-0.2,0-0.4,0-0.7c-0.3-1.7-1.9-3-3.6-2.5c-2.4,0.6-3.9,4.9-4.1,7.1c0,0.1,0.1,1.6,0.1,2.5
				c-0.1-0.5-0.2-1-0.4-1.6c-0.3-1.1-0.5-2.1-0.8-3.3c-0.2-0.5-0.3-1.1-0.5-1.6c-0.2-0.6-0.4-1.1-0.6-1.7c-0.5-1.3-1-2.6-1.6-3.9
				c0.9-0.2,4.2-1.1,5.6-2.1c1.3-1,2.7-2.7,2.7-4.4c0-1.7-1.4-3.2-3.2-3c-2.5,0.3-4.6,4.2-5.1,6.4c0,0.1-0.2,1.7-0.2,2.6
				c-0.4-0.8-0.7-1.6-1.1-2.3c-1.1-2.2-2.3-4.5-3.5-6.7c-0.4-0.7-0.7-1.4-1.1-2c0.3-0.1,4.3-1,5.8-2.1c1.3-1,2.7-2.7,2.7-4.4
				c0-1.7-1.4-3.2-3.2-3c-2.5,0.3-4.6,4.2-5.1,6.4c0,0.2-0.2,2.5-0.3,3.1c-0.8-1.5-1.5-3-2.2-4.5c-1-2.1-1.8-4.2-2.4-6.3
				c0.2,0,4.3-1,5.8-2.1c1.3-1,2.7-2.7,2.7-4.4c0-1.7-1.4-3.2-3.2-3c-2.5,0.3-4.6,4.2-5.1,6.4c0,0.2-0.3,2.7-0.3,3.1
				c0-0.1-0.1-0.2-0.1-0.4c-0.7-2.2-1-4.5-1.3-6.6c-0.1-1.2-0.2-2.4-0.2-3.6c0.8-0.1,4.4-0.6,5.9-1.5c1.4-0.9,3-2.4,3.2-4.1
				c0.2-1.7-1-3.4-2.8-3.4c-2.5,0-5.1,3.7-5.8,5.8c0,0.1-0.3,1.3-0.5,2.2c0-0.5,0-1.1,0-1.6c0-1.9,0.1-3.6,0.2-5.1
				c0.1-0.9,0.2-1.7,0.2-2.4c0.7-0.5,3.6-2.5,4.5-4c0.9-1.4,1.6-3.5,0.9-5.1c-0.6-1.6-2.5-2.5-4.1-1.7c-2.2,1.1-2.8,5.6-2.4,7.8
				c0,0.2,0.9,3.1,0.9,3.1c0,0,0,0,0,0c-0.1,0.7-0.2,1.5-0.3,2.3c-0.2,1.5-0.3,3.3-0.4,5.2c0,1.9,0,3.9,0.1,6.1
				c0.2,2.2,0.5,4.4,1.1,6.8c0,0,0,0.1,0,0.1c-0.4-0.6-1.5-2.3-1.7-2.4c-1.5-1.7-5.3-4.1-7.6-3.1c-1.7,0.7-2.1,2.7-1.3,4.2
				c0.8,1.5,2.9,2.3,4.5,2.5c1.9,0.3,5.8-0.9,6.1-1c0.6,2.2,1.4,4.4,2.4,6.6c0.5,1.2,1.1,2.5,1.7,3.7c-0.4-0.5-0.7-1-0.7-1
				c-1.5-1.7-5.3-4.1-7.6-3.1c-1.7,0.7-2.1,2.7-1.3,4.2c0.8,1.5,2.9,2.3,4.5,2.5c1.7,0.2,5-0.7,5.9-0.9c0.2,0.5,0.5,0.9,0.7,1.4
				c1.1,2.3,2.3,4.5,3.3,6.7c0.4,0.8,0.7,1.6,1,2.4c-0.3-0.5-0.6-0.9-0.6-0.9c-1.5-1.7-5.3-4.1-7.6-3.1c-1.7,0.7-2.1,2.7-1.3,4.2
				c0.8,1.5,2.9,2.3,4.5,2.5c1.6,0.2,4.7-0.6,5.7-0.9c0.3,0.8,0.6,1.6,0.9,2.4c0.2,0.6,0.4,1.1,0.5,1.6c0.2,0.6,0.3,1.1,0.5,1.7
				c0.3,1.1,0.5,2.2,0.7,3.2c0.2,0.7,0.3,1.4,0.4,2.1c-0.4-0.8-1.1-2.3-1.2-2.4c-1.2-1.9-4.6-4.8-7-4.2c-1.7,0.4-2.5,2.3-1.9,3.9
				c0.6,1.7,2.5,2.7,4.1,3.2c1.8,0.5,5.6,0,6.1,0c0.2,1.2,0.4,2.3,0.6,3.4c0.7,3.7,1.1,6.8,1.3,9c0,0.4,0.1,0.7,0.1,1.1h-7.5
				l2.4,47.1c0.2,3.6,3.1,6.4,6.7,6.4l0,0c3.6,0,6.5-2.8,6.7-6.4l2.4-47.1h-7c0.1-0.1,0.1-0.2,0.2-0.3c1-2,2.3-4.9,3.7-8.4
				c0.5-1.1,0.9-2.3,1.4-3.5c0.5,0.1,4.3,0.9,6.1,0.5c1.6-0.4,3.6-1.3,4.3-2.9c0.7-1.6,0.1-3.5-1.6-4.1c-2.4-0.8-6,1.9-7.3,3.7
				c-0.1,0.1-0.8,1.3-1.2,2.1c0.2-0.5,0.4-1,0.6-1.5c0.4-1,0.7-2.1,1.1-3.2c0.2-0.5,0.3-1.1,0.5-1.7c0.2-0.5,0.3-1.1,0.4-1.7
				c0.3-1.4,0.6-2.7,0.8-4.1c0.9,0.3,4.1,1.4,5.8,1.3c1.7-0.1,3.7-0.7,4.7-2.2c0.9-1.4,0.6-3.5-1-4.3c-2.2-1.1-6.2,1-7.8,2.5
				c-0.1,0.1-1.1,1.4-1.6,2.1c0.1-0.8,0.3-1.7,0.4-2.5c0.3-2.5,0.5-5,0.8-7.5c0.1-0.8,0.2-1.5,0.2-2.3c0.3,0.1,4.1,1.5,6,1.4
				c1.7-0.1,3.7-0.7,4.7-2.2c0.9-1.4,0.6-3.5-1-4.3c-2.2-1.1-6.2,1-7.8,2.5c-0.1,0.1-1.6,1.9-1.9,2.4c0.2-1.7,0.4-3.4,0.6-5
				c0.4-2.3,0.8-4.5,1.4-6.6c0.1,0.1,4.1,1.5,6,1.4c1.7-0.1,3.7-0.7,4.7-2.2c0.9-1.4,0.6-3.5-1-4.3c-2.2-1.1-6.2,1-7.8,2.5
				c-0.1,0.1-1.7,2.1-1.9,2.4c0-0.1,0.1-0.3,0.1-0.4c0.7-2.2,1.6-4.3,2.6-6.2c0.6-1.1,1.2-2.1,1.8-3.1c0.7,0.4,4,1.9,5.7,2
				c1.7,0.1,3.8-0.3,4.9-1.7c1.1-1.3,1-3.4-0.5-4.4c-2.1-1.4-6.3,0.3-8,1.7c-0.1,0.1-1,0.9-1.6,1.6c0.3-0.4,0.6-0.9,0.8-1.3
				c1-1.6,2.1-2.9,3-4.2c0.5-0.7,1-1.3,1.5-1.9c0.9,0,4.4-0.1,5.9-0.8c1.5-0.7,3.2-2,3.6-3.7C428.5,278.8,427.4,277.1,425.7,276.9z
				 M398.2,343.5c-1.5,3.5-2.9,6.3-3.9,8.2c-0.2,0.4-0.4,0.7-0.5,1.1h-0.2c0-0.4-0.1-0.8-0.2-1.3c-0.3-2.2-0.8-5.3-1.5-9.1
				c-0.2-1.2-0.5-2.4-0.8-3.7c0.3-0.1,1.9-0.8,3.4-1.6c1.3,1.4,4.5,3,5,3.2C399.1,341.5,398.6,342.5,398.2,343.5z"/>
			<path class="st3" d="M412.6,292.7c0,0,0.8-2.9,0.8-3.1c0.3-2.2-0.4-6.7-2.6-7.7c-1.6-0.8-3.4,0.2-4,1.8c-0.6,1.7,0.2,3.7,1.1,5.1
				C408.9,290.4,412.6,292.7,412.6,292.7z"/>
		</g>
	</g>
</g>
</svg>
